<svg width="1050" height="104" viewBox="0 0 1050 104" xmlns="http://www.w3.org/2000/svg">
  <defs><filter id="s"><feDropShadow dx="0" dy="3" stdDeviation="4" flood-color="#64748B" flood-opacity=".12"/></filter></defs>
  <rect x="5" y="5" width="1040" height="94" rx="22" fill="#FFFEFA" stroke="#DCE5EE" filter="url(#s)"/>
  <g font-family="Segoe UI, Arial, sans-serif">
    <g transform="translate(34 24)">
      <circle cx="28" cy="28" r="27" fill="#E3F5FB"/>
      <path d="M15 20h26v18H15zM15 21l13 10 13-10" fill="none" stroke="#344155" stroke-width="2.5" stroke-linejoin="round"/>
      <text x="70" y="20" fill="#8A95A3" font-size="11" letter-spacing="2">EMAIL</text>
      <text x="70" y="43" fill="#344155" font-size="15" font-weight="600">225040220@link.cuhk.edu.cn</text>
    </g>
    <path d="M397 25V79" stroke="#E2E8F0"/>
    <g transform="translate(425 24)">
      <circle cx="28" cy="28" r="27" fill="#FFF0D6"/>
      <path d="M28 16a12 12 0 0 0-4 23c1 .2 1.5-.4 1.5-1v-3.8c-4.5 1-5.5-2-5.5-2-.8-2-1.9-2.5-1.9-2.5-1.5-1 .1-1 .1-1 1.7.1 2.6 1.8 2.6 1.8 1.5 2.6 4 1.8 5 .9.2-1.1.6-1.8 1.1-2.2-3.6-.4-7.4-1.8-7.4-8a6.2 6.2 0 0 1 1.7-4.4 5.8 5.8 0 0 1 .2-4.3s1.4-.4 4.5 1.7a15.6 15.6 0 0 1 8.2 0c3.1-2.1 4.5-1.7 4.5-1.7a5.8 5.8 0 0 1 .2 4.3 6.2 6.2 0 0 1 1.7 4.4c0 6.2-3.8 7.6-7.4 8 .6.5 1.1 1.5 1.1 3v4.4c0 .6.5 1.2 1.5 1A12 12 0 0 0 28 16z" fill="#344155"/>
      <text x="70" y="20" fill="#8A95A3" font-size="11" letter-spacing="2">GITHUB</text>
      <text x="70" y="43" fill="#344155" font-size="15" font-weight="600">fengzheng-kite</text>
    </g>
    <path d="M699 25V79" stroke="#E2E8F0"/>
    <g transform="translate(728 24)">
      <circle cx="28" cy="28" r="27" fill="#E9F7EC"/>
      <path d="M28 15c-7 0-12 5-12 12 0 9 12 18 12 18s12-9 12-18c0-7-5-12-12-12z" fill="none" stroke="#344155" stroke-width="2.5"/><circle cx="28" cy="27" r="4" fill="#78C993"/>
      <text x="70" y="20" fill="#8A95A3" font-size="11" letter-spacing="2">LOCATION</text>
      <text x="70" y="43" fill="#344155" font-size="15" font-weight="600">Shenzhen, China</text>
    </g>
  </g>
</svg>
